<?xml version="1.0" encoding="utf-8"?>
<!-- Generator: Adobe Illustrator 21.1.0, SVG Export Plug-In . SVG Version: 6.00 Build 0)  -->
<svg version="1.1" id="Capa_1" xmlns="http://www.w3.org/2000/svg" xmlns:xlink="http://www.w3.org/1999/xlink" x="0px" y="0px"
	 viewBox="0 0 137 137" style="enable-background:new 0 0 137 137;" xml:space="preserve">
<style type="text/css">
	.st0{clip-path:url(#SVGID_2_);fill:#FFFFFF;}
	.st1{clip-path:url(#SVGID_2_);fill:#B62074;}
</style>
<g>
	<g>
		<defs>
			<rect id="SVGID_1_" x="2" y="2" width="133" height="133"/>
		</defs>
		<clipPath id="SVGID_2_">
			<use xlink:href="#SVGID_1_"  style="overflow:visible;"/>
		</clipPath>
		<path class="st0" d="M101.8,43.7c-0.4,0.6-1.2,0.7-1.8,0.3c-0.6-0.4-0.7-1.2-0.3-1.8h0c0.1-0.1,5.5-7.9,1.3-10.8
			c-2.2-1.6-10.5,6-16.9,14.2c-0.4,0.6-1.3,0.7-1.8,0.2c-0.6-0.4-0.7-1.2-0.2-1.8c3.4-4.4,15.1-18.5,20.4-14.7
			C108.7,33.7,102,43.3,101.8,43.7 M50,71.2c-1.7,0-3-2.4-3-5.5c0-3,1.4-5.5,3-5.5c1.7,0,3,2.4,3,5.5C53.1,68.8,51.7,71.2,50,71.2
			 M106.6,24.4c-9-5.2-26.7,13-26.7,13s-1.9,1.8-3.2,3.3c-1.3,1.6-2.4,3-4.1,1.7C71,41,72.2,39.7,74,38c0.9-0.9,1.7-1.7,1.7-1.7
			c-2.2-0.5-4.5-0.7-6.9-0.7c-18.3,0-33.2,15-33.2,33.4c0,18.5,14.8,33.4,33.2,33.4c12.1,0,22.7-6.6,28.5-16.4
			c-7,6.3-15.9,9.3-19.7,10.4c-7,2.4-20.2,4.4-30.7-9.1c-0.4-0.6-0.3-1.4,0.2-1.8c0.6-0.4,1.4-0.3,1.8,0.2c8.6,11.1,19,10.8,25.6,9
			c0.5-0.5,4.3-4.9-0.4-9.7c-1.4-1.5-3.6-2.8-5.8-4.1c-0.6-0.4-1.2-0.7-1.9-1.1c-1,2.2-3.4,2.4-3.4,2.4s0.8-3.2-1.4-3.2
			c-2.5-0.1-1.4,3.5-1.4,3.5L59.4,83l-1.2-0.4c0,0,1-3.6-1.4-3.6c-2.3,0.1-1.4,3.1-1.4,3.1s-4.3-0.5-4.5-4.4
			c-0.1-2.5,2.7-5.4,7.8-5.4c0.1,0,0.2,0,0.2,0c-0.6-1.4-1-2.9-1.1-4.7c-0.2-6.2,1.6-13.8,12-14.4c6.2-0.4,10.1,3.2,12.1,6.8
			c1.3-3.4,4-7,9.4-7.4c2.8-0.2,5.3,0.1,7.4,0.7c0.2,0.1,0.4,0.1,0.5,0.2C103.6,46.5,113,28.1,106.6,24.4 M82.3,64.6L82.3,64.6
			L82.3,64.6L82.3,64.6z"/>
		<path class="st0" d="M127.9,77.8l-5.8-1.1c-1.8-0.4-4-0.8-5.6-1.2l0,0c1.4,0.8,2.9,1.8,4.5,2.9l5.7,3.9l-0.3,1.3l-6.7,0.6
			c-2,0.1-3.8,0.2-5.4,0.2l0,0c1.6,0.4,3.7,1.1,5.7,1.7l5.5,1.8l-0.4,1.6l-12.7-4.2l0.6-2.1l6.8-0.6c1.7-0.1,3.3-0.2,4.7-0.2l0,0
			c-1.2-0.7-2.5-1.5-4-2.5l-5.7-3.9l0.6-2.1l13.1,2.5L127.9,77.8z M122.2,94.8l-12-5.8l0.8-1.6l12,5.8L122.2,94.8z M119.1,100.2
			l-8-0.5c-1.8-0.1-3.5-0.3-5.1-0.6l0,0.1c1.4,0.9,2.7,1.8,4.5,3.1l4.6,3.3l-1,1.3l-10.8-7.8l1.1-1.6l8,0.5c1.8,0.1,3.4,0.3,4.9,0.6
			l0-0.1c-1.5-0.9-2.9-1.8-4.5-3l-4.5-3.3l1-1.3l10.8,7.8L119.1,100.2z M110.5,110.9l-3.8-2.2l-3.6,3.1l1.7,4.1l-1.4,1.2l-5.2-13.1
			l1.6-1.4l12.2,7.1L110.5,110.9z M68.5,108.8c-22.3,0-40.3-18-40.3-40.3c0-8.4,2.6-16.2,7-22.7c0,0-7.9-13.8-1.2-18.8
			c6.5-4.8,17,5.2,17,5.2c5.3-2.5,11.2-4,17.5-4c4.5,0,8.8,0.7,12.9,2.1c0,0,16.7-15,26.4-9.3c11.1,6.5-3.1,29.7-3.1,29.7
			c2.6,5.4,4.1,11.4,4.1,17.8C108.8,90.8,90.8,108.8,68.5,108.8 M93.8,122.4l-6.4-4.7c-1.4-1-2.8-2.1-3.9-3.2l0,0
			c0.7,1.5,1.3,3,2.1,5.1l2.1,5.3l-1.5,0.6L81.2,113l1.8-0.7l6.5,4.7c1.5,1.1,2.7,2.1,3.8,3.2l0.1,0c-0.8-1.6-1.4-3.1-2.2-5
			l-2.1-5.2l1.5-0.6l4.9,12.4L93.8,122.4z M76.3,127.6L76.3,127.6c-3.6,0.5-6.3-1.9-6.9-5.9c-0.5-4.2,1.7-7.3,5.3-7.8
			c3.7-0.5,6.4,2,6.9,5.9C82.1,124.3,79.6,127.1,76.3,127.6 M63.1,120.9c-0.5,2.1-1.5,3.7-3,4.7c-1.5,0.9-3.7,1.2-6.2,0.6
			c-1.2-0.3-2.2-0.5-3.1-0.8l2.9-12.8c1.1,0.1,2.3,0.2,3.7,0.5c2.4,0.5,4,1.5,4.9,2.8C63.2,117.1,63.5,118.8,63.1,120.9 M49.4,118.2
			l-4.7-2.2l-2,4.4l5.3,2.4l-0.6,1.3l-6.8-3.2l5.7-12.1l6.6,3.1l-0.6,1.3l-5-2.3l-1.8,3.8l4.7,2.2L49.4,118.2z M33,116.1l7-9.7
			l-3.3-2.4l0.9-1.2l8,5.8l-0.9,1.2l-3.3-2.4l-7,9.7L33,116.1z M31.2,104.4c0.9,2.3,0.9,3.8-0.5,5.2c-1.5,1.4-3.9,1.6-6-0.8
			c-0.9-0.9-1.6-2.2-1.7-3.1l1.4-0.7c0.2,0.9,0.7,2,1.5,2.8c1.2,1.3,2.6,1.4,3.6,0.5c0.9-0.8,0.9-1.9,0.2-3.7
			c-0.9-2.1-1-3.9,0.4-5.2c1.5-1.4,3.8-1.2,5.6,0.7c0.9,1,1.4,1.9,1.5,2.6l-1.4,0.6c-0.1-0.5-0.4-1.4-1.3-2.3
			c-1.2-1.3-2.5-1.1-3.2-0.5C30.4,101.6,30.5,102.6,31.2,104.4 M21.8,103l-1.2,0.8l-4-6.4l11.3-7.1l3.9,6.1l-1.2,0.8l-2.9-4.7
			L24,94.7l2.8,4.4l-1.2,0.8l-2.8-4.4l-4.1,2.6L21.8,103z M13,89.3L24.1,85l-1.5-3.8l1.4-0.5l3.6,9.3l-1.4,0.5l-1.5-3.8l-11.1,4.3
			L13,89.3z M9.5,73.4l11.8-1.2L21,68.2l1.5-0.1l0.9,9.9l-1.5,0.1L21.5,74L9.7,75.2L9.5,73.4z M9.6,61.5L9.6,61.5
			c0.4-3.6,3.4-5.7,7.5-5.2c4.2,0.5,6.6,3.4,6.2,7c-0.4,3.7-3.5,5.7-7.4,5.2C11.3,67.9,9.2,64.9,9.6,61.5 M12.2,50.2l7.9-1.5
			c1.7-0.3,3.5-0.6,5.1-0.7v-0.1c-1.6-0.5-3.1-1.1-5.2-1.9L14.7,44l0.6-1.5l12.4,4.8L27,49.1l-7.9,1.5c-1.8,0.3-3.4,0.6-4.9,0.7
			l0,0.1c1.7,0.5,3.2,1,5.2,1.8l5.2,2L24,56.7l-12.4-4.8L12.2,50.2z M50.1,9.6l3-0.1c0,0,6.3-0.8,5.6,4.7c-0.7,5.5-5.6,5.4-7.9,5.2
			l0.2-0.8l-1.6,5.8H46L50.1,9.6z M67.6,9.8c0.4,0.1,0.9,0.5,1.1,0.9c0.6,1,0.2,2.2-0.3,3.1c-1.5,2.3-4.2,2.4-6.4,3.2l-1,0.3
			c-0.3,0.5-0.3,1.2-0.4,1.7c-0.1,1.5-0.1,3.3,1.4,4c1.4,0.3,2.6-0.4,3.5-1.3c0.4-0.4,0.7-0.9,1-1.3c0.1,0,0.2,0.1,0.4,0.1
			c0,0.3-0.3,0.5-0.4,0.8c-1.5,1.9-3.5,4.2-6.2,3.6c-1.7-0.6-2.1-2.5-2.1-4.1c0-2.9,1.1-5.4,2.7-7.6C62.4,11,64.7,8.8,67.6,9.8
			 M69.6,12.9l0.9-3.2l9.9-0.1l-0.9,3.2l-3.2,0.1L73,24.5h-3.6l3.2-11.7H69.6z M87.4,9.5v14.9l-3.3,0V22h-3.3l-1.1,2.5H76l7.2-14.9
			L87.4,9.5z M115.2,50.5c1.1-0.5,1.4-1.5,1.3-3.5c-0.1-2.4,0.5-3.9,2.3-4.7c1.9-0.8,4.1-0.1,5.4,2.8c0.5,1.2,0.7,2.6,0.5,3.5
			l-1.5,0.2c0.1-0.9,0.1-2.1-0.4-3.2c-0.7-1.6-1.9-2.2-3.2-1.7c-1.1,0.5-1.5,1.4-1.4,3.4c0.1,2.3-0.4,4-2.1,4.8
			c-1.9,0.8-4-0.1-5-2.5c-0.5-1.2-0.6-2.3-0.6-3l1.5-0.1c-0.1,0.5-0.1,1.5,0.4,2.6C113.1,50.7,114.4,50.9,115.2,50.5 M126.2,51
			l1.6,7.3l-13,2.9l-0.4-1.7l11.6-2.6l-1.2-5.6L126.2,51z M128.5,63.6l-4.2,1.5l0.1,4.8l4.2,1.3l0,1.8l-13.4-4.4l0-2.1l13.3-4.8
			L128.5,63.6z M68.5,2C31.8,2,2,31.8,2,68.5C2,105.2,31.8,135,68.5,135c36.7,0,66.5-29.8,66.5-66.5C135,31.8,105.2,2,68.5,2
			 M54.3,15.8c0.8-0.7,1.1-2.6,0.6-3c-0.5-0.4-2.1-0.2-2.3-0.2l-0.6,2.2l-0.4,1.7C51.6,16.5,53.2,16.8,54.3,15.8 M74.8,115.3
			c-2.9,0.4-3.9,3.2-3.6,6.1c0.4,2.8,2.2,5.2,4.9,4.8l0,0c2.7-0.4,3.9-3.1,3.6-6.1C79.4,117.5,77.6,114.9,74.8,115.3 M16,66.6
			c2.6,0.3,5.6-0.7,5.9-3.6c0.4-2.9-2.1-4.6-5-5c-2.8-0.3-5.6,0.9-5.9,3.6l0,0C10.6,64.4,12.9,66.3,16,66.6 M57.1,114.4
			c-0.9-0.2-1.6-0.3-2-0.3l-2.3,10.3c0.4,0.2,1,0.3,1.7,0.5c3.6,0.8,6-0.8,6.8-4.3C62,117.5,60.7,115.2,57.1,114.4 M102.5,110.5
			l3.1-2.6l-3.5-2c-0.8-0.5-1.4-0.9-2.1-1.4l0,0c0.4,0.7,0.7,1.5,1.1,2.3L102.5,110.5z M63.7,15.7c3.1-1,4.9-4.8,2.4-5.6
			c-2.4-0.8-4.7,6.2-4.7,6.2S60.6,16.7,63.7,15.7 M119.1,68.3l3.9,1.3l0-4l-3.8,1.4c-0.9,0.3-1.7,0.5-2.4,0.7l0,0.1
			C117.5,67.8,118.3,68,119.1,68.3 M84.1,14.7L84.1,14.7l-2,4.3h2V14.7z"/>
		<path class="st0" d="M39.3,49c-1.8-3.2-10.2-18.6-2.7-20.9c5.5-1.6,12,4.7,15.9,9.2C43.5,41.9,39.3,49,39.3,49"/>
		<path class="st1" d="M81.8,65.2c0,0-2.5-10.2-11.5-9.6c-4.1,0.2-9.9,1.8-9.5,11.5c0.3,8.5,10,10.2,14.2,14.7c1.9,2,3.5,3.2,4.2,6
			c0.9,3.6-1.5,6.3-1.5,6.3s28.5-7.9,26.6-29.9c-0.4-5-2.2-9.3-11.8-9.1C84.5,55.1,81.8,65.2,81.8,65.2"/>
	</g>
</g>
</svg>
